# xmcd
#
# Track frame offsets:
#	150
#	18538
#	36895
#	54888
#	77269
#	91930
#	110946
#	127379
#	143997
#	162761
#	176906
#	190017
#	209854
#	228703
#
# Disc length: 3274 seconds
#
# Revision: 1
# Processed by: cddbd v1.5.2PL0 Copyright (c) Steve Scherf et al.
# Submitted via: audiograbber 1.83.01
#
DISCID=ca0cc80e
DTITLE=Shane T Hobbins - Hillbilly Ways
DYEAR=1900
DGENRE=Country
TTITLE0=Brokenback
TTITLE1=That bloke you got to know
TTITLE2=From the Eastside
TTITLE3=Sunday mornin' comin' down
TTITLE4=Musterin' the bretti
TTITLE5=Must be movin' on
TTITLE6=Month to the day
TTITLE7=Indian Pacific
TTITLE8=64 years
TTITLE9=Broken down guitar
TTITLE10=Walk a country mile
TTITLE11=Eight long years
TTITLE12=Daddy won't you please come home
TTITLE13=Convoy of caravans
EXTD=
EXTT0=
EXTT1=
EXTT2=
EXTT3=
EXTT4=
EXTT5=
EXTT6=
EXTT7=
EXTT8=
EXTT9=
EXTT10=
EXTT11=
EXTT12=
EXTT13=
PLAYORDER=
